<?xml version="1.0" encoding="UTF-8" standalone="no"?>
<!DOCTYPE svg PUBLIC "-//W3C//DTD SVG 1.1//EN"
 "http://www.w3.org/Graphics/SVG/1.1/DTD/svg11.dtd">
<!-- Generated by graphviz version 6.0.1 (20220911.1526)
 -->
<!-- Pages: 1 -->
<svg width="569pt" height="260pt"
 viewBox="0.00 0.00 568.73 260.00" xmlns="http://www.w3.org/2000/svg" xmlns:xlink="http://www.w3.org/1999/xlink">
<g id="graph0" class="graph" transform="scale(1 1) rotate(0) translate(4 256)">
<polygon fill="white" stroke="none" points="-4,4 -4,-256 564.73,-256 564.73,4 -4,4"/>
<!-- INITIAL -->
<g id="node1" class="node">
<title>INITIAL</title>
<ellipse fill="none" stroke="black" cx="303.74" cy="-234" rx="43.59" ry="18"/>
<text text-anchor="middle" x="303.74" y="-230.3" font-family="Times New Roman,serif" font-size="14.00" fill="blue">INITIAL</text>
</g>
<!-- STRING -->
<g id="node2" class="node">
<title>STRING</title>
<ellipse fill="none" stroke="black" cx="184.74" cy="-162" rx="44.39" ry="18"/>
<text text-anchor="middle" x="184.74" y="-158.3" font-family="Times New Roman,serif" font-size="14.00" fill="red">STRING</text>
</g>
<!-- INITIAL&#45;&gt;STRING -->
<g id="edge1" class="edge">
<title>INITIAL&#45;&gt;STRING</title>
<path fill="none" stroke="black" d="M279.66,-218.83C261.75,-208.3 237.12,-193.81 217.44,-182.24"/>
<polygon fill="black" stroke="black" points="219.18,-179.2 208.79,-177.14 215.63,-185.23 219.18,-179.2"/>
</g>
<!-- COMMENT -->
<g id="node5" class="node">
<title>COMMENT</title>
<ellipse fill="none" stroke="black" cx="303.74" cy="-162" rx="57.39" ry="18"/>
<text text-anchor="middle" x="303.74" y="-158.3" font-family="Times New Roman,serif" font-size="14.00" fill="red">COMMENT</text>
</g>
<!-- INITIAL&#45;&gt;COMMENT -->
<g id="edge2" class="edge">
<title>INITIAL&#45;&gt;COMMENT</title>
<path fill="none" stroke="black" d="M303.74,-215.7C303.74,-207.98 303.74,-198.71 303.74,-190.11"/>
<polygon fill="black" stroke="black" points="307.24,-190.1 303.74,-180.1 300.24,-190.1 307.24,-190.1"/>
</g>
<!-- RESERVED_WORD -->
<g id="node6" class="node">
<title>RESERVED_WORD</title>
<ellipse fill="none" stroke="black" cx="469.74" cy="-162" rx="90.98" ry="18"/>
<text text-anchor="middle" x="469.74" y="-158.3" font-family="Times New Roman,serif" font-size="14.00" fill="red">RESERVED_WORD</text>
</g>
<!-- INITIAL&#45;&gt;RESERVED_WORD -->
<g id="edge3" class="edge">
<title>INITIAL&#45;&gt;RESERVED_WORD</title>
<path fill="none" stroke="black" d="M333.04,-220.65C358.04,-210.1 394.44,-194.75 423.39,-182.54"/>
<polygon fill="black" stroke="black" points="425.04,-185.65 432.9,-178.54 422.32,-179.2 425.04,-185.65"/>
</g>
<!-- STRING_ESCAPE_CHAR -->
<g id="node3" class="node">
<title>STRING_ESCAPE_CHAR</title>
<ellipse fill="none" stroke="black" cx="113.74" cy="-90" rx="113.98" ry="18"/>
<text text-anchor="middle" x="113.74" y="-86.3" font-family="Times New Roman,serif" font-size="14.00">STRING_ESCAPE_CHAR</text>
</g>
<!-- STRING&#45;&gt;STRING_ESCAPE_CHAR -->
<g id="edge4" class="edge">
<title>STRING&#45;&gt;STRING_ESCAPE_CHAR</title>
<path fill="none" stroke="black" d="M168.63,-145.12C159.63,-136.24 148.23,-125.01 138.16,-115.08"/>
<polygon fill="black" stroke="black" points="140.36,-112.33 130.78,-107.8 135.44,-117.31 140.36,-112.33"/>
</g>
<!-- STRING_ESCAPE_CHAR_WHITESPACE -->
<g id="node4" class="node">
<title>STRING_ESCAPE_CHAR_WHITESPACE</title>
<ellipse fill="none" stroke="black" cx="184.74" cy="-18" rx="176.57" ry="18"/>
<text text-anchor="middle" x="184.74" y="-14.3" font-family="Times New Roman,serif" font-size="14.00">STRING_ESCAPE_CHAR_WHITESPACE</text>
</g>
<!-- STRING_ESCAPE_CHAR&#45;&gt;STRING_ESCAPE_CHAR_WHITESPACE -->
<g id="edge5" class="edge">
<title>STRING_ESCAPE_CHAR&#45;&gt;STRING_ESCAPE_CHAR_WHITESPACE</title>
<path fill="none" stroke="black" d="M130.93,-72.05C139.61,-63.5 150.3,-52.96 159.85,-43.54"/>
<polygon fill="black" stroke="black" points="162.55,-45.79 167.22,-36.28 157.64,-40.8 162.55,-45.79"/>
</g>
<!-- STRING_ESCAPE_CHAR_WHITESPACE&#45;&gt;STRING -->
<g id="edge6" class="edge">
<title>STRING_ESCAPE_CHAR_WHITESPACE&#45;&gt;STRING</title>
<path fill="none" stroke="black" d="M208.22,-35.86C219.1,-45.14 230.89,-57.68 236.74,-72 242.79,-86.81 242.79,-93.19 236.74,-108 231.86,-119.93 222.86,-130.63 213.7,-139.24"/>
<polygon fill="black" stroke="black" points="211.26,-136.72 206.06,-145.96 215.88,-141.98 211.26,-136.72"/>
</g>
</g>
</svg>
